<svg width="1200" height="630" viewBox="0 0 1200 630" xmlns="http://www.w3.org/2000/svg">
  <defs>
    <radialGradient id="bgGrad" cx="30%" cy="40%" r="70%"><stop offset="0%" stop-color="#1c1408"/><stop offset="100%" stop-color="#0c0a06"/></radialGradient>
    <radialGradient id="glowA" cx="50%" cy="50%" r="50%"><stop offset="0%" stop-color="#e8a832" stop-opacity="0.18"/><stop offset="100%" stop-color="#e8a832" stop-opacity="0"/></radialGradient>
    <radialGradient id="glowT" cx="50%" cy="50%" r="50%"><stop offset="0%" stop-color="#2abfb3" stop-opacity="0.14"/><stop offset="100%" stop-color="#2abfb3" stop-opacity="0"/></radialGradient>
    <clipPath id="clip"><rect width="1200" height="630"/></clipPath>
  </defs>
  <g clip-path="url(#clip)">
    <rect width="1200" height="630" fill="url(#bgGrad)"/>
    <g stroke="rgba(232,168,50,0.04)" stroke-width="1">
      <line x1="0" y1="80" x2="1200" y2="80"/><line x1="0" y1="160" x2="1200" y2="160"/><line x1="0" y1="240" x2="1200" y2="240"/><line x1="0" y1="320" x2="1200" y2="320"/><line x1="0" y1="400" x2="1200" y2="400"/><line x1="0" y1="480" x2="1200" y2="480"/><line x1="0" y1="560" x2="1200" y2="560"/>
      <line x1="80" y1="0" x2="80" y2="630"/><line x1="160" y1="0" x2="160" y2="630"/><line x1="240" y1="0" x2="240" y2="630"/><line x1="320" y1="0" x2="320" y2="630"/><line x1="400" y1="0" x2="400" y2="630"/><line x1="480" y1="0" x2="480" y2="630"/><line x1="560" y1="0" x2="560" y2="630"/><line x1="640" y1="0" x2="640" y2="630"/><line x1="720" y1="0" x2="720" y2="630"/><line x1="800" y1="0" x2="800" y2="630"/><line x1="880" y1="0" x2="880" y2="630"/><line x1="960" y1="0" x2="960" y2="630"/><line x1="1040" y1="0" x2="1040" y2="630"/><line x1="1120" y1="0" x2="1120" y2="630"/>
    </g>
    <ellipse cx="200" cy="315" rx="400" ry="400" fill="url(#glowA)"/>
    <ellipse cx="1000" cy="200" rx="320" ry="320" fill="url(#glowT)"/>
    <rect x="0" y="0" width="4" height="630" fill="#e8a832" opacity="0.85"/>
    <rect x="1196" y="0" width="4" height="630" fill="#2abfb3" opacity="0.4"/>
    <rect x="0" y="0" width="1200" height="1" fill="rgba(232,168,50,0.25)"/>
    <rect x="0" y="629" width="1200" height="1" fill="rgba(232,168,50,0.12)"/>
    <path d="M 60 40 L 40 40 L 40 60" stroke="#e8a832" stroke-width="2" fill="none" opacity="0.6"/>
    <path d="M 1140 590 L 1160 590 L 1160 570" stroke="#2abfb3" stroke-width="2" fill="none" opacity="0.6"/>
    <rect x="60" y="100" width="220" height="24" rx="2" fill="rgba(232,168,50,0.08)" stroke="rgba(232,168,50,0.25)" stroke-width="1"/>
    <text x="74" y="116" font-family="monospace" font-size="11" letter-spacing="3" fill="#e8a832" opacity="0.9">PORTFOLIO · 2025</text>
    <text x="58" y="258" font-family="Georgia, serif" font-size="186" letter-spacing="4" fill="#faf3e3" font-weight="bold" opacity="0.97">YASH</text>
    <text x="58" y="418" font-family="Georgia, serif" font-size="186" letter-spacing="4" fill="#e8a832" font-weight="bold">PATIL</text>
    <text x="720" y="418" font-family="Georgia, serif" font-size="186" fill="rgba(42,191,179,0.65)" font-weight="bold">.</text>
    <text x="62" y="458" font-family="monospace" font-size="14" letter-spacing="4" fill="#8a7d65">FRONTEND DEVELOPER  ·  UI/UX DESIGNER  ·  PUNE, INDIA</text>
    <line x1="60" y1="478" x2="780" y2="478" stroke="rgba(232,168,50,0.18)" stroke-width="1"/>
    <rect x="60" y="496" width="110" height="26" rx="13" fill="rgba(232,168,50,0.08)" stroke="rgba(232,168,50,0.22)" stroke-width="1"/>
    <text x="115" y="514" font-family="monospace" font-size="10" letter-spacing="2" fill="#e8a832" text-anchor="middle">THREE.JS</text>
    <rect x="182" y="496" width="90" height="26" rx="13" fill="rgba(232,168,50,0.08)" stroke="rgba(232,168,50,0.22)" stroke-width="1"/>
    <text x="227" y="514" font-family="monospace" font-size="10" letter-spacing="2" fill="#e8a832" text-anchor="middle">REACT</text>
    <rect x="284" y="496" width="100" height="26" rx="13" fill="rgba(42,191,179,0.08)" stroke="rgba(42,191,179,0.22)" stroke-width="1"/>
    <text x="334" y="514" font-family="monospace" font-size="10" letter-spacing="2" fill="#2abfb3" text-anchor="middle">AI / LLMs</text>
    <rect x="396" y="496" width="140" height="26" rx="13" fill="rgba(42,191,179,0.08)" stroke="rgba(42,191,179,0.22)" stroke-width="1"/>
    <text x="466" y="514" font-family="monospace" font-size="10" letter-spacing="2" fill="#2abfb3" text-anchor="middle">UI/UX DESIGN</text>
    <circle cx="940" cy="280" r="120" fill="rgba(232,168,50,0.05)" stroke="rgba(232,168,50,0.15)" stroke-width="1"/>
    <text x="940" y="318" font-family="Georgia, serif" font-size="100" letter-spacing="4" fill="#e8a832" text-anchor="middle" font-weight="bold" opacity="0.9">YP</text>
    <rect x="870" y="425" width="240" height="36" rx="18" fill="rgba(42,191,179,0.08)" stroke="rgba(42,191,179,0.32)" stroke-width="1"/>
    <circle cx="893" cy="443" r="5" fill="#2abfb3"/>
    <text x="910" y="447" font-family="monospace" font-size="11" letter-spacing="2" fill="#2abfb3">OPEN TO INTERNSHIPS</text>
    <text x="1140" y="600" font-family="monospace" font-size="11" letter-spacing="2" fill="#8a7d65" text-anchor="end">yashpatil3495.github.io</text>
    <circle cx="1060" cy="560" r="2" fill="#e8a832" opacity="0.4"/>
    <circle cx="1075" cy="560" r="2" fill="#e8a832" opacity="0.25"/>
    <circle cx="1090" cy="560" r="2" fill="#e8a832" opacity="0.12"/>
  </g>
</svg>
